# AST/ASF file generated using VICON BodyLanguage
# -----------------------------------------------
:version 1.10
:name VICON
:units
  mass 1.0
  length 0.45
  angle deg
:documentation
   .ast/.asf automatically generated from VICON data using
   VICON BodyBuilder and BodyLanguage model FoxedUp or BRILLIANT.MOD
:root
   order TX TY TZ RX RY RZ
   axis XYZ
   position 0 0 0  
   orientation 0 0 0 
:bonedata
  begin
     id 1 
     name lhipjoint
     direction 0.722297 -0.617336 0.311742 
     length 2.6635 
     axis 0 0 0  XYZ
  end
  begin
     id 2 
     name lfemur
     direction 0.34202 -0.939693 0  
     length 7.39349  
     axis 0 0 20  XYZ
    dof rx ry rz
    limits (-160.0 20.0)
           (-70.0 70.0)
           (-60.0 70.0)
  end
  begin
     id 3 
     name ltibia
     direction 0.34202 -0.939693 0   
     length 7.36294   
     axis 0 0 20   XYZ
    dof rx
    limits (-10.0 170.0)
  end
  begin
     id 4 
     name lfoot
     direction 0.104879 -0.288152 0.951824   
     length 2.16981   
     axis -90 7.62852e-016 20   XYZ
    dof rx rz
    limits (-45.0 90.0)
           (-70.0 20.0)
  end
  begin
     id 5 
     name ltoes
     direction 1.53586e-011 -4.21895e-011 1   
     length 1.08218   
     axis -90 7.62852e-016 20   XYZ
    dof rx
    limits (-90.0 20.0)
  end
  begin
     id 6 
     name rhipjoint
     direction -0.75102 -0.589393 0.297631   
     length 2.78977  
     axis 0 0 0  XYZ 
  end
  begin
     id 7 
     name rfemur
     direction -0.34202 -0.939693 0   
     length 7.46076   
     axis 0 0 -20   XYZ
    dof rx ry rz
    limits (-160.0 20.0)
           (-70.0 70.0)
           (-70.0 60.0)
  end
  begin
     id 8 
     name rtibia
     direction -0.34202 -0.939693 0   
     length 7.31726   
     axis 0 0 -20   XYZ
    dof rx
    limits (-10.0 170.0)
 end
 begin
     id 9 
     name rfoot
     direction -0.107991 -0.296704 0.948844   
     length 2.09388  
     axis -90 -7.62852e-016 -20   XYZ
    dof rx rz
    limits (-45.0 90.0)
           (-20.0 70.0)
  end
  begin
     id 10 
     name rtoes
     direction -1.53559e-011 -4.21911e-011 1   
     length 1.04433   
     axis -90 -7.62852e-016 -20   XYZ
    dof rx
    limits (-90.0 20.0)
  end
  begin
     id 11 
     name lowerback
     direction 0.0165164 0.98272 0.184358   
     length 1.71896   
     axis 0 0 0   XYZ
    dof rx ry rz
    limits (-20.0 45.0)
           (-30.0 30.0)
           (-30.0 30.0)
  end
  begin
     id 12 
     name upperback
     direction -0.00887249 0.992297 0.123566   
     length 1.71504   
     axis 0 0 0   XYZ
    dof rx ry rz
    limits (-20.0 45.0)
           (-30.0 30.0)
           (-30.0 30.0)
  end
  begin
     id 13 
     name thorax
     direction -0.0157026 0.998908 0.0440032   
     length 1.77022   
     axis 0 0 0   XYZ
    dof rx ry rz
    limits (-20.0 45.0)
           (-30.0 30.0)
           (-30.0 30.0)
  end
  begin
     id 14 
     name lowerneck
     direction -0.0238856 0.998137 0.0561411   
     length 1.89341   
     axis 0 0 0   XYZ
    dof rx ry rz
    limits (-20.0 45.0)
           (-30.0 30.0)
           (-30.0 30.0)
  end
  begin
     id 15 
     name upperneck
     direction 0.0276574 0.952253 -0.304056   
     length 1.86999   
     axis 0 0 0   XYZ
    dof rx ry rz
    limits (-20.0 45.0)
           (-30.0 30.0)
           (-30.0 30.0)
  end
  begin
     id 16
     name head
     direction 0.00800083 0.994258 -0.106712  
     length 1.91492  
     axis 0 0 0   XYZ
    dof rx ry rz
    limits (-20.0 45.0)
           (-30.0 30.0)
           (-30.0 30.0)
  end
  begin
     id 17 
     name lclavicle
     direction 0.97203 0.225407 0.06595  
     length 3.34889  
     axis 0 0 0   XYZ
    dof ry rz
    limits (-20.0 10.0)
           (0.0 20.0)
  end
  begin
     id 18 
     name lhumerus
     direction 1 -4.48973e-011 2.20267e-027   
     length 4.85645   
     axis 180 -30 -90   XYZ
    dof rx ry rz
    limits (-60.0 90.0)
           (-90.0 90.0)
           (-90.0 90.0)
  end
  begin
     id 19
     name lradius
     direction 1 -4.4897e-011 4.60472e-027   
     length 2.79874   
     axis 180 -30 -90   XYZ
    dof rx
    limits (-10.0 170.0)
  end
  begin
     id 20
     name lwrist
     direction 1 -4.48952e-011 1.14928e-026   
     length 1.39937   
     axis -6.29373e-015 90 90   XYZ
    dof ry
    limits (-180.0 0.0)
 end
  begin
     id 21 
     name lhand
     direction 1 -4.48967e-011 2.29886e-026   
     length 0.573398   
     axis -1.46689e-014 90 90   XYZ
    dof rx rz
    limits (-90.0 90.0)
           (-45.0 45.0)
  end
  begin
     id 22 
     name lfingers
     direction 1 -4.48955e-011 4.59726e-026   
     length 0.462289   
     axis -2.93383e-014 90 90   XYZ
    dof rx
    limits (0.0 90.0)
  end
  begin
     id 23
     name lthumb
     direction 0.707107 -6.34866e-011 0.707107   
     length 0.663757   
     axis -90 45 5.69224e-014   XYZ
    dof rx rz
    limits (-45.0 45.0)
           (-45.0 45.0)
  end
  begin
     id 24 
     name rclavicle
     direction -0.981571 0.157346 0.108443   
     length 3.35257  
     axis 0 0 0   XYZ 
    dof ry rz
    limits (-10.0 20.0)
           (-20.0 0.0)
  end
  begin
     id 25 
     name rhumerus
     direction -1 -4.48967e-011 8.58308e-029  
     length 4.67018   
     axis 180 30 90   XYZ
    dof rx ry rz
    limits (-90.0 60.0)
           (-90.0 90.0)
           (-90.0 90.0)
  end
  begin
     id 26 
     name rradius
     direction -1 -4.48958e-011 4.52548e-027   
     length 2.65534   
     axis 180 30 90   XYZ
    dof rx
    limits (-10.0 170.0)
  end
  begin
     id 27 
     name rwrist
     direction -1 -4.48977e-011 1.14952e-026   
     length 1.32767   
     axis -6.29373e-015 -90 -90   XYZ
    dof ry
    limits (-180.0 0.0)
  end
  begin
     id 28
     name rhand
     direction -1 -4.48924e-011 2.29804e-026   
     length 0.594069   
     axis -1.46689e-014 -90 -90   XYZ
    dof rx rz
    limits (-90.0 90.0)
           (-45.0 45.0)
  end
  begin
     id 29
     name rfingers
     direction -1 -4.48998e-011 4.59888e-026   
     length 0.478954   
     axis -2.93383e-014 -90 -90   XYZ
    dof rx
    limits (0.0 90.0)
  end
  begin
     id 30
     name rthumb
     direction -0.707107 -6.34933e-011 0.707107   
     length 0.687685   
     axis -90 -45 -5.69224e-014   XYZ
    dof rx rz
    limits (-45.0 45.0)
           (-45.0 45.0)
  end
:hierarchy
  begin
    root lhipjoint rhipjoint lowerback
    lhipjoint lfemur
    lfemur ltibia
    ltibia lfoot
    lfoot ltoes
    rhipjoint rfemur
    rfemur rtibia
    rtibia rfoot
    rfoot rtoes
    lowerback upperback
    upperback thorax
    thorax lowerneck lclavicle rclavicle
    lowerneck upperneck
    upperneck head
    lclavicle lhumerus
    lhumerus lradius
    lradius lwrist
    lwrist lhand lthumb
    lhand lfingers
    rclavicle rhumerus
    rhumerus rradius
    rradius rwrist
    rwrist rhand rthumb
    rhand rfingers
  end

#!OML:ASF E:\pregnant2\Project 1\Capture day 1\Session 1\pregnant2.ASF
:FULLY-SPECIFIED
:DEGREES
1
root 4.07884 16.9153 39.7459 -148.548 -22.2936 176.133
lowerback -17.1925 7.44868 1.38137
upperback -16.3072 6.45059 -7.54234
thorax -7.1496 1.3074 -8.07851
lowerneck -1.9661 17.8597 24.7648
upperneck 27.1269 23.022 -6.2192
head 13.2099 11.8844 -2.76791
rclavicle 7.73272e-014 -5.56597e-015
rhumerus -60.2807 7.43191 -101.296
rradius 91.319
rwrist -23.3053
rhand -1.59668 -15.6051
rfingers 7.12502
rthumb 24.0602 -44.1168
lclavicle 7.73272e-014 -5.56597e-015
lhumerus -62.8107 -32.6311 104.227
lradius 99.0383
lwrist 31.4021
lhand 8.00944 28.9372
lfingers 7.12502
lthumb 33.236 55.8873
rfemur -42.9492 11.0112 16.216
rtibia 32.7001
rfoot -27.1975 -31.2152
rtoes 15.8042
lfemur -46.2864 -20.4137 -11.7213
ltibia 26.3607
lfoot -11.0963 4.67898
ltoes -21.3994
2
root 4.07912 16.9155 39.7463 -148.556 -22.3742 176.125
lowerback -17.2262 7.38257 1.35165
upperback -16.257 6.382 -7.48915
thorax -7.09241 1.28785 -8.0063
lowerneck -1.39808 17.7581 24.903
upperneck 26.5222 23.0908 -6.61462
head 12.9361 11.9151 -2.97908
rclavicle -2.60408e-014 -4.05521e-014
rhumerus -60.085 7.68138 -101.162
rradius 91.3648
rwrist -23.9882
rhand -0.914094 -16.2224
rfingers 7.12502
rthumb 24.7145 -44.6461
lclavicle -2.60408e-014 -4.05521e-014
lhumerus -62.7715 -32.5511 104.179
lradius 99.0758
lwrist 31.3964
lhand 7.93505 28.9325
lfingers 7.12502
lthumb 33.1653 55.8977
rfemur -42.9183 10.9781 16.2403
rtibia 32.6946
rfoot -27.2305 -31.2372
rtoes 15.8765
lfemur -46.274 -20.4296 -11.7195
ltibia 26.348
lfoot -11.1074 4.60903
ltoes -21.3718
3
root 4.07998 16.915 39.7463 -148.56 -22.4419 176.131
lowerback -17.1464 7.42892 1.38166
upperback -16.276 6.44358 -7.52352
thorax -7.13993 1.31419 -8.06073
lowerneck -1.60805 17.7711 24.9733
upperneck 26.729 23.0533 -6.58683
head 13.063 11.8989 -2.9593
rclavicle -4.9895e-014 -7.39479e-014
rhumerus -60.2356 7.33617 -101.226
rradius 91.3179
rwrist -23.0945
rhand -1.50193 -15.5571
rfingers 7.12502
rthumb 24.151 -44.0568
lclavicle -4.9895e-014 -7.39479e-014
lhumerus -62.7592 -32.5655 104.191
lradius 99.0555
lwrist 31.3525
lhand 8.05594 28.9541
lfingers 7.12502
lthumb 33.2802 55.8948
rfemur -42.9156 11.0217 16.2331
rtibia 32.7018
rfoot -27.3138 -31.3042
rtoes 16.0101
lfemur -46.2848 -20.4539 -11.6863
ltibia 26.3326
lfoot -11.1042 4.57242
ltoes -21.43
4
root 4.07974 16.9154 39.7478 -148.541 -22.5326 176.106
lowerback -17.119 7.41814 1.39368
upperback -16.264 6.43575 -7.52905
thorax -7.13958 1.31238 -8.0764
lowerneck -1.84643 17.8122 24.8229
upperneck 26.9095 23.0185 -6.36816
head 13.1242 11.8826 -2.84538
rclavicle -1.17283e-014 1.90833e-014
rhumerus -60.2529 7.27282 -101.203
rradius 91.3701
rwrist -22.9766
rhand -1.48533 -15.5333
rfingers 7.12502
rthumb 24.1669 -44.0308
lclavicle -1.17283e-014 1.90833e-014
lhumerus -62.7385 -32.5422 104.174
lradius 99.0735
lwrist 31.3262
lhand 8.06594 28.9885
lfingers 7.12502
lthumb 33.2897 55.9271
rfemur -42.8998 10.9225 16.2649
rtibia 32.6823
rfoot -27.3082 -31.3019
rtoes 16.0033
lfemur -46.326 -20.5017 -11.673
ltibia 26.3472
lfoot -11.1128 4.52926
ltoes -21.4303
5
root 4.08062 16.9146 39.7487 -148.525 -22.6056 176.112
lowerback -17.1127 7.40666 1.38142
upperback -16.2583 6.42769 -7.50838
thorax -7.14083 1.31322 -8.04792
lowerneck -1.63258 17.7627 24.943
upperneck 26.68 23.0463 -6.59987
head 13.0428 11.8934 -2.96134
rclavicle -6.83819e-014 7.63333e-014
rhumerus -60.1909 7.23832 -101.141
rradius 91.3248
rwrist -22.8678
rhand -1.43997 -15.4496
rfingers 7.12502
rthumb 24.2104 -43.9413
lclavicle -6.83819e-014 7.63333e-014
lhumerus -62.7354 -32.496 104.196
lradius 99.1161
lwrist 31.2468
lhand 7.97286 29.2631
lfingers 7.12502
lthumb 33.2012 56.2206
rfemur -42.9095 10.9318 16.2701
rtibia 32.6637
rfoot -27.3439 -31.3547
rtoes 16.0378
lfemur -46.3788 -20.523 -11.6326
ltibia 26.3648
lfoot -11.1159 4.48139
ltoes -21.3914
6
root 4.08047 16.9182 39.7445 -148.469 -22.4178 176.233
lowerback -17.2713 7.50476 1.36008
upperback -16.2705 6.55027 -7.5025
thorax -7.05577 1.37542 -7.99906
lowerneck -1.3449 17.7007 25.1238
upperneck 26.3624 23.0848 -6.9025
head 12.9322 11.9113 -3.11517
rclavicle 7.23576e-014 -1.03368e-014
rhumerus -60.1895 7.15998 -101.11
rradius 91.3702
rwrist -22.721
rhand -1.42555 -15.3384
rfingers 7.12502
rthumb 24.2243 -43.8283
lclavicle 7.23576e-014 -1.03368e-014
lhumerus -62.7111 -32.4565 104.167
lradius 99.1261
lwrist 31.1677
lhand 8.04585 29.2638
lfingers 7.12502
lthumb 33.2706 56.2065
rfemur -43.0096 10.9578 16.3844
rtibia 32.6374
rfoot -27.1267 -31.2474
rtoes 15.8635
lfemur -46.3855 -20.1478 -11.6852
ltibia 26.3895
lfoot -11.2186 4.34462
ltoes -21.4047
7
root 4.08042 16.918 39.745 -148.439 -22.4624 176.225
lowerback -17.2772 7.50592 1.34011
upperback -16.2664 6.55745 -7.4967
thorax -7.04959 1.38301 -7.97968
lowerneck -1.37348 17.6929 25.0952
upperneck 26.3686 23.0662 -6.88395
head 12.9298 11.9021 -3.10706
rclavicle -1.23246e-014 -9.62118e-014
rhumerus -60.1781 7.08163 -101.049
rradius 91.3846
rwrist -22.5566
rhand -1.38825 -15.3021
rfingers 7.12502
rthumb 24.26 -43.7872
lclavicle -1.23246e-014 -9.62118e-014
lhumerus -62.689 -32.4154 104.173
lradius 99.1255
lwrist 31.1152
lhand 8.02981 29.2774
lfingers 7.12502
lthumb 33.2554 56.2234
rfemur -43.0244 10.9463 16.3816
rtibia 32.617
rfoot -27.1247 -31.2896
rtoes 15.8418
lfemur -46.4325 -20.1599 -11.6673
ltibia 26.4119
lfoot -11.2522 4.31219
ltoes -21.3529
8
root 4.0809 16.9178 39.7463 -148.43 -22.5214 176.224
lowerback -17.2533 7.50509 1.3523
upperback -16.2621 6.56007 -7.50022
thorax -7.05476 1.38514 -7.9919
lowerneck -1.35257 17.6864 25.1074
upperneck 26.3121 23.0691 -6.91219
head 12.9085 11.9038 -3.12093
rclavicle -3.598e-014 3.89618e-014
rhumerus -60.1326 6.99891 -101.005
rradius 91.3687
rwrist -22.3927
rhand -1.20007 -15.2575
rfingers 7.12502
rthumb 24.4404 -43.7185
lclavicle -3.598e-014 3.89618e-014
lhumerus -62.6671 -32.3818 104.151
lradius 99.1276
lwrist 31.0153
lhand 8.07918 29.2431
lfingers 7.12502
lthumb 33.3023 56.1791
rfemur -43.0236 10.9308 16.3922
rtibia 32.5994
rfoot -27.1508 -31.3108
rtoes 15.9731
lfemur -46.4705 -20.1724 -11.6479
ltibia 26.4361
lfoot -11.2522 4.27288
ltoes -21.4509
9
root 4.08105 16.9181 39.7468 -148.415 -22.5787 176.221
lowerback -17.2583 7.50466 1.34457
upperback -16.2483 6.56766 -7.49245
thorax -7.03643 1.39411 -7.97657
lowerneck -1.34299 17.6727 25.112
upperneck 26.2738 23.0646 -6.95617
head 12.8966 11.8996 -3.14024
rclavicle 3.93594e-014 -5.88403e-014
rhumerus -60.1225 6.89204 -100.931
rradius 91.3989
rwrist -22.2127
rhand -1.10721 -15.2158
rfingers 7.12502
rthumb 24.5294 -43.6646
lclavicle 3.93594e-014 -5.88403e-014
lhumerus -62.6497 -32.355 104.157
lradius 99.1423
lwrist 30.928
lhand 8.07746 29.2883
lfingers 7.12502
lthumb 33.3007 56.2246
rfemur -43.0302 10.9058 16.4069
rtibia 32.6038
rfoot -27.1853 -31.312
rtoes 16.0133
lfemur -46.4947 -20.1756 -11.6376
ltibia 26.4349
lfoot -11.2678 4.223
ltoes -21.4149
10
root 4.0808 16.9175 39.7483 -148.394 -22.633 176.212
lowerback -17.2482 7.51444 1.34743
upperback -16.2421 6.585 -7.50766
thorax -7.02983 1.40417 -7.99312
lowerneck -1.3299 17.6415 25.1451
upperneck 26.2212 23.035 -7.012
head 12.8797 11.8859 -3.17307
rclavicle 1.76918e-014 -6.36111e-015
rhumerus -60.0805 6.76666 -100.866
rradius 91.4039
rwrist -22.0521
rhand -0.947163 -15.2109
rfingers 7.12502
rthumb 24.6829 -43.6389
lclavicle 1.76918e-014 -6.36111e-015
lhumerus -62.642 -32.3629 104.163
lradius 99.1565
lwrist 30.8372
lhand 8.00478 29.345
lfingers 7.12502
lthumb 33.2316 56.2961
rfemur -43.0471 10.8595 16.419
rtibia 32.6105
rfoot -27.2054 -31.3165
rtoes 16.0645
lfemur -46.5347 -20.2045 -11.6161
ltibia 26.4377
lfoot -11.2542 4.19026
ltoes -21.464
11
root 4.08093 16.9175 39.7492 -148.397 -22.6513 176.223
lowerback -17.2322 7.51974 1.35434
upperback -16.2342 6.59677 -7.50518
thorax -7.0265 1.41224 -7.99339
lowerneck -1.28917 17.6335 25.1953
upperneck 26.1801 23.0434 -7.06956
head 12.8721 11.8908 -3.20169
rclavicle 7.55382e-015 -1.90833e-014
rhumerus -60.0627 6.67436 -100.829
rradius 91.4262
rwrist -21.8763
rhand -1.01942 -15.1274
rfingers 7.12502
rthumb 24.6136 -43.5648
lclavicle 7.55382e-015 -1.90833e-014
lhumerus -62.6189 -32.3262 104.127
lradius 99.1726
lwrist 30.7507
lhand 7.96367 29.3251
lfingers 7.12502
lthumb 33.1925 56.2845
rfemur -43.0542 10.8417 16.4407
rtibia 32.615
rfoot -27.1751 -31.327
rtoes 16.0497
lfemur -46.543 -20.1953 -11.605
ltibia 26.4394
lfoot -11.2649 4.16347
ltoes -21.4023
12
root 4.08134 16.9171 39.7505 -148.383 -22.7035 176.228
lowerback -17.2326 7.50858 1.35248
upperback -16.2197 6.58982 -7.48559
thorax -7.0125 1.41389 -7.97062
lowerneck -1.36143 17.6397 25.1332
upperneck 26.2306 23.0286 -7.01289
head 12.8867 11.8818 -3.17041
rclavicle -2.76311e-014 4.29375e-014
rhumerus -60.0362 6.60562 -100.769
rradius 91.4489
rwrist -21.6701
rhand -0.892774 -15.0868
rfingers 7.12502
rthumb 24.735 -43.5077
lclavicle -2.76311e-014 4.29375e-014
lhumerus -62.5704 -32.2627 104.105
lradius 99.1701
lwrist 30.6271
lhand 7.98391 29.1726
lfingers 7.12502
lthumb 33.2117 56.1279
rfemur -43.0737 10.8227 16.458
rtibia 32.6255
rfoot -27.1874 -31.3494
rtoes 16.0403
lfemur -46.5723 -20.1819 -11.594
ltibia 26.4373
lfoot -11.2739 4.09238
ltoes -21.4026
13
root 4.08137 16.9167 39.7513 -148.359 -22.7299 176.219
lowerback -17.2446 7.50525 1.33387
upperback -16.2074 6.59201 -7.48188
thorax -6.99398 1.41967 -7.95395
lowerneck -1.34829 17.6365 25.1503
upperneck 26.2027 23.0359 -7.04868
head 12.8815 11.8844 -3.18524
rclavicle 4.77083e-015 4.05521e-014
rhumerus -59.9895 6.4943 -100.706
rradius 91.4491
rwrist -21.4482
rhand -0.860484 -15.0962
rfingers 7.12502
rthumb 24.7659 -43.5128
lclavicle 4.77083e-015 4.05521e-014
lhumerus -62.5361 -32.2144 104.077
lradius 99.1912
lwrist 30.5244
lhand 7.91461 29.2236
lfingers 7.12502
lthumb 33.1458 56.1929
rfemur -43.0956 10.8112 16.4504
rtibia 32.6276
rfoot -27.207 -31.3558
rtoes 16.0944
lfemur -46.6038 -20.1849 -11.5881
ltibia 26.4412
lfoot -11.2801 4.07203
ltoes -21.439
